<?xml version="1.0" encoding="UTF-8"?>
<svg width="400px" height="97px" viewBox="0 0 400 97" version="1.1" xmlns="http://www.w3.org/2000/svg" xmlns:xlink="http://www.w3.org/1999/xlink">
    <!-- Generator: Sketch 42 (36781) - http://www.bohemiancoding.com/sketch -->
    <title>wefox</title>
    <desc>Created with Sketch.</desc>
    <defs>
        <linearGradient x1="50%" y1="0%" x2="50%" y2="100%" id="linearGradient-1">
            <stop stop-color="#F2BA35" offset="0%"></stop>
            <stop stop-color="#FFA83B" offset="100%"></stop>
        </linearGradient>
        <polygon id="path-2" points="34.3471664 0.186004203 0.163128568 0.186004203 0.163128568 76.2607814 34.3471664 76.2607814 34.3471664 0.186004203"></polygon>
    </defs>
    <g id="Page-1" stroke="none" stroke-width="1" fill="none" fill-rule="evenodd">
        <g id="wefox">
            <g id="wefox_Logo/colored">
                <g id="Logo">
                    <g id="Group-3" transform="translate(0.000000, 6.381245)" fill="url(#linearGradient-1)">
                        <path d="M69.7023421,66.1285283 C69.7023421,66.1285283 76.3522763,62.090589 76.3522763,48.9714065 C76.3522763,40.297489 76.323746,19.1024278 76.3023483,5.73131553 C76.2952157,1.04824769 70.8102682,-1.52755734 67.1369938,1.4202561 L43.6161504,20.3079234 C40.4659313,22.8366387 35.9605237,22.8389932 32.807927,20.3126323 L9.21100288,1.40377471 C5.53772854,-1.54168425 0.057536077,1.03647527 0.0504035055,5.71718863 C0.0313833148,19.0883009 0.000475504769,40.29278 0.000475504769,48.9714065 C0.000475504769,62.090589 6.66467484,66.1285283 6.66467484,66.1285283 C6.66467484,66.1285283 26.1056873,83.4410461 32.0661396,88.178267 C35.7536791,91.1095991 40.5895626,91.1731702 44.3508053,88.178267 C50.2969924,83.4410461 69.7023421,66.1285283 69.7023421,66.1285283" id="Fill-1"></path>
                    </g>
                    <path d="M156.130327,76.5088639 L147.583128,51.5984276 L138.745872,76.5088639 L124.761277,76.5088639 L107.766737,35.0581805 C105.434386,29.2873412 103.39447,26.3042105 101.549512,24.5736651 L101.549512,23.6130358 L125.926264,23.6130358 L125.926264,24.5736651 C123.78887,26.3042105 123.498812,29.0942736 125.731307,35.0581805 L132.725982,53.6185746 L144.185647,23.6130358 L150.690552,23.6130358 L162.540131,52.6579453 L169.047414,35.0581805 C171.18243,29.3815206 170.989851,26.3042105 168.852457,24.5736651 L168.852457,23.6130358 L190.801757,23.6130358 L190.801757,24.5736651 C189.441813,26.3042105 187.499376,29.2873412 185.167025,35.0581805 L168.172485,76.5088639 L156.130327,76.5088639 Z" id="Fill-4" fill="#454545"></path>
                    <path d="M216.820902,47.0789964 C221.773284,47.0789964 224.978187,44.7716025 224.978187,41.5012248 C224.978187,38.4239148 222.358155,36.1141664 217.888411,36.1141664 C212.83855,36.1141664 208.468661,39.5776117 206.623703,44.3854672 C208.953676,45.8287656 212.256057,47.0789964 216.820902,47.0789964 M241.292755,62.6586143 C241.292755,69.4889711 233.622863,77.8544513 217.210816,77.8544513 C200.506334,77.8544513 188.366697,65.5452111 188.366697,49.6759918 C188.366697,33.3264578 201.8639,22.3616278 217.210816,22.3616278 C232.845413,22.3616278 241.682669,31.3063109 241.682669,41.404691 C241.682669,49.7725256 233.622863,56.2167472 220.608298,56.2167472 C214.003537,56.2167472 209.051154,54.5803811 206.041209,53.0429033 C207.498631,59.1009896 213.130985,63.5250642 221.385748,63.5250642 C230.223004,63.5250642 235.175386,59.0044557 237.992752,55.5433649 C239.547653,56.600528 241.292755,59.0044557 241.292755,62.6586143" id="Fill-6" fill="#454545"></path>
                    <g id="Group-10" transform="translate(243.941286, 0.248083)">
                        <mask id="mask-3" fill="white">
                            <use xlink:href="#path-2"></use>
                        </mask>
                        <g id="Clip-9"></g>
                        <path d="M5.21298921,76.2607814 L5.21298921,75.2036182 C7.83539802,73.4707183 8.61284831,70.5864759 8.61284831,64.8156367 L8.61284831,36.8278904 L0.163128568,36.8278904 L0.163128568,23.3649533 L8.51536983,23.3649533 C6.67041133,21.2482725 5.40794617,18.460564 5.40794617,15.0936524 C5.40794617,6.05243549 12.2052868,0.185062409 21.7225148,0.185062409 C28.7148124,0.185062409 33.7646731,4.51260323 33.7646731,9.61006018 C33.7646731,14.2272025 31.2397427,16.9207317 27.7447827,17.4975802 C27.7447827,15.0936524 26.47994,12.8827924 23.8599087,12.8827924 C21.8199933,12.8827924 20.0725132,14.516804 20.0725132,17.3045125 C20.0725132,20.8644917 23.6649518,23.3649533 28.0348406,23.3649533 L34.3471664,23.3649533 L34.3471664,36.8278904 L25.6073888,36.8278904 L25.6073888,64.8156367 C25.6073888,70.5864759 26.5774185,73.4707183 29.0048703,75.2036182 L29.0048703,76.2607814 L5.21298921,76.2607814 Z" id="Fill-8" fill="#454545" mask="url(#mask-3)"></path>
                    </g>
                    <path d="M323.638769,50.2533112 C323.638769,41.6924089 318.006415,37.0776211 310.819161,37.0776211 C303.631906,37.0776211 297.999552,41.6924089 297.999552,50.2533112 C297.999552,58.6211458 303.631906,63.4290013 310.819161,63.4290013 C318.006415,63.4290013 323.638769,58.6211458 323.638769,50.2533112 M310.819161,77.8549222 C294.989607,77.8549222 280.712576,66.4097775 280.712576,50.2533112 C280.712576,33.2303949 294.989607,22.3620987 310.819161,22.3620987 C326.746193,22.3620987 340.925745,33.2303949 340.925745,50.2533112 C340.925745,66.4097775 326.746193,77.8549222 310.819161,77.8549222" id="Fill-11" fill="#454545"></path>
                    <path d="M372.96906,76.5088639 L372.871582,75.5458801 C375.201555,74.0084024 374.619062,71.7975423 370.831666,66.601197 L367.239228,61.6968077 L363.936847,66.601197 C360.43951,71.6044746 360.24693,74.0084024 362.674382,75.5458801 L362.674382,76.5088639 L338.977602,76.5088639 L338.977602,75.5458801 C340.337546,74.0084024 342.279983,71.5079408 345.9699,66.601197 L358.596929,49.677169 L346.942307,33.7114159 C343.152534,28.5174251 341.405054,26.1134974 339.270037,24.5736651 L339.270037,23.6130358 L365.199312,23.6130358 L365.199312,24.5736651 C362.771861,26.1134974 363.451832,28.5174251 367.239228,33.7114159 L371.319059,39.2891875 L375.006598,33.7114159 C378.406457,28.6139589 378.698893,26.1134974 376.076484,24.5736651 L376.076484,23.6130358 L399.868365,23.6130358 L399.868365,24.5736651 C398.510799,26.1134974 396.665841,28.8070266 392.975924,33.7114159 L379.86388,51.118113 L391.128587,66.601197 C394.915983,71.7975423 397.733349,74.0084024 399.868365,75.5458801 L399.868365,76.5088639 L372.96906,76.5088639 Z" id="Fill-13" fill="#454545"></path>
                </g>
            </g>
        </g>
    </g>
</svg>